<?xml version="1.0" encoding="UTF-8"?>
<svg version="1.1" xmlns="http://www.w3.org/2000/svg" width="1534" height="978">
<path d="M0 0 C0.68310539 -0.00397441 1.36621077 -0.00794881 2.07001632 -0.01204365 C4.36410281 -0.02168542 6.65757549 -0.00983779 8.9516449 0.00190735 C10.59414399 -0.00051998 12.23664161 -0.00423873 13.87913513 -0.00915527 C18.34390404 -0.01857522 22.80845415 -0.00913001 27.273206 0.00417686 C31.9394518 0.01547518 36.60568659 0.01138515 41.27194214 0.00942993 C49.10775843 0.00854653 56.94348828 0.01963771 64.77928162 0.03804016 C73.84805445 0.05921587 82.91670069 0.06271638 91.98549324 0.0564782 C100.69881083 0.05079067 109.41208368 0.0564225 118.12539482 0.06765175 C121.83868675 0.0723051 125.55195138 0.07316843 129.26524544 0.0710659 C133.63433417 0.06918719 138.0032934 0.07725458 142.3723526 0.0931263 C143.97922925 0.09738157 145.586119 0.0982114 147.19299889 0.0954361 C149.37962355 0.09223148 151.56585699 0.10125199 153.75244141 0.11352539 C154.97821679 0.11557826 156.20399218 0.11763113 157.46691227 0.11974621 C160.31272888 0.3742218 160.31272888 0.3742218 162.31272888 2.3742218 C182.72429969 55.20416977 167.56317673 139.10565765 167.49083487 195.08772057 C167.47663697 206.09940052 167.46774145 217.11107247 167.46354485 228.12276077 C167.46326224 228.8627305 167.46297964 229.60270023 167.46268847 230.36509329 C167.46128296 234.12683906 167.45997114 237.88858486 167.45870238 241.65033068 C167.44968318 268.10387448 167.43217039 294.55740589 167.40867615 321.01094055 C167.40726859 322.59932209 167.4058612 324.18770362 167.40445399 325.77608515 C167.40375638 326.5630307 167.40305878 327.34997624 167.40234004 328.16076862 C167.39881176 332.14124178 167.39528747 336.12171494 167.39176941 340.10218811 C167.39072172 341.28585063 167.39072172 341.28585063 167.38965286 342.49342553 C167.37346014 360.83552545 167.35984203 379.17762696 167.34715271 397.51972961 C167.34660659 398.30616663 167.34606048 399.09260364 167.34549781 399.90287208 C167.3329985 417.93575651 167.32174588 435.96864117 167.31289577 454.00152779 C167.31252038 454.76390976 167.31214499 455.52629174 167.31175822 456.3117762 C167.30838832 463.17772712 167.3050689 470.04367806 167.30200808 476.90962912 C167.29444446 493.86953186 167.28401957 510.82942365 167.26581926 527.78931859 C167.25315391 539.60293888 167.24399176 551.41655743 167.2382539 563.23018317 C167.23498393 569.58905652 167.23013906 575.94791661 167.22043991 582.30678368 C167.16788997 617.67475862 167.58942497 653.01447946 168.31272888 688.3742218 C172.1073367 690.44308282 174.82013277 690.62387556 179.17287159 690.62311077 C179.86593463 690.62571806 180.55899767 690.62832534 181.27306262 690.63101164 C183.60675493 690.63733234 185.94018026 690.62933572 188.27386475 690.62145996 C189.95937248 690.62304754 191.64487959 690.62551063 193.33038491 690.62877637 C197.97110775 690.63520489 202.61174369 690.62911008 207.25246084 690.62101209 C212.25393735 690.61444622 217.25540397 690.61938119 222.25688171 690.62289429 C232.05921081 690.62794213 241.86150624 690.62228704 251.66383115 690.61304399 C263.0745314 690.60267042 274.48522433 690.60272991 285.89592841 690.60321657 C306.25516524 690.60371751 326.61438638 690.59454761 346.97361755 690.58003235 C366.73599025 690.56594987 386.49834914 690.55886132 406.26072693 690.55952454 C408.08573564 690.55958447 408.08573564 690.55958447 409.94761322 690.55964562 C411.16216559 690.55968597 412.37671796 690.55972632 413.62807494 690.5597679 C436.11244008 690.56045773 458.59679934 690.554567 481.08116258 690.54561469 C489.0373576 690.54259739 496.99355155 690.541535 504.94974709 690.54108238 C514.64640831 690.54040028 524.34305962 690.53593624 534.03971664 690.52674957 C538.98834124 690.52213167 543.93695316 690.51908605 548.88558006 690.52034378 C553.4150165 690.52143914 557.94442492 690.51791836 562.47385552 690.51069526 C564.11314879 690.5088827 565.75244495 690.50875089 567.39173833 690.51046254 C569.61954629 690.51253124 571.84726275 690.50845603 574.07506275 690.50285625 C575.31268134 690.50215183 576.55029993 690.5014474 577.82542211 690.50072163 C581.38369555 690.37164753 584.79980476 689.94128879 588.31272888 689.3742218 C588.4370724 675.52235438 588.2988832 661.70212644 587.88049316 647.85760689 C587.45014048 633.32116684 587.22387738 618.795897 587.25022888 604.25312805 C587.25166334 603.41916945 587.2530978 602.58521084 587.25457573 601.72598076 C587.26836069 594.94930796 587.29542921 588.17269987 587.32310486 581.39607239 C587.34673279 575.47343191 587.36509134 569.55080779 587.37522888 563.62812805 C587.37670803 562.79982483 587.37818718 561.97152161 587.37971115 561.11811829 C587.39897155 543.96115566 586.97507398 526.82295626 586.47831154 509.67433262 C586.07620852 495.38725222 586.09361627 481.13773783 586.95677185 466.86787415 C587.80266824 451.83138849 587.32471378 436.72675032 587.05882263 421.6789093 C587.03407783 420.25633267 587.00934858 418.83375576 586.9846344 417.41117859 C586.83167839 408.66234429 586.83167839 408.66234429 586.66453552 399.91377258 C586.3493712 383.96518127 586.26010436 368.0759367 586.81663513 352.1320343 C587.24732053 339.76411968 587.34851859 327.43592432 587.15647888 315.0617218 C587.14401186 314.25300755 587.13154484 313.44429329 587.11870003 312.61107254 C587.02732589 306.86525287 586.9213486 301.11973734 586.81272888 295.3742218 C586.68905309 288.79102531 586.5713593 282.20778715 586.46897888 275.6242218 C586.45659306 274.83295458 586.44420723 274.04168736 586.43144608 273.22644234 C586.24948048 260.8768461 586.46594148 248.59644171 587.06419373 236.25679016 C587.87186012 219.16644279 587.37431806 202.00344057 587.05101013 184.9054718 C587.0269812 183.60391647 587.00295227 182.30236115 586.97819519 180.96136475 C586.85621582 174.38916167 586.72610558 167.81729929 586.58079529 161.24555969 C586.32746771 148.89481431 586.30707841 136.63354993 586.92340088 124.29452515 C587.45026834 113.46759337 587.46315294 102.64860286 587.44309998 91.81074524 C587.43773186 88.37613008 587.44309267 84.9416456 587.44944763 81.5070343 C587.45308795 68.5531131 587.17090243 55.64540353 586.5453949 42.70649719 C585.20355584 14.1791034 585.20355584 14.1791034 588.31272888 2.3742218 C591.53514543 0.2259441 592.3716016 0.12321146 596.08003247 0.11777014 C597.56382267 0.10833789 597.56382267 0.10833789 599.07758844 0.0987151 C600.16932009 0.10196819 601.26105174 0.10522129 602.38586617 0.10857296 C604.12688299 0.10196566 604.12688299 0.10196566 605.90307188 0.09522489 C609.1444069 0.08498659 612.38560473 0.08377312 615.62695051 0.08627989 C619.14593155 0.08683995 622.66487962 0.07592067 626.1838454 0.06646401 C633.17214486 0.0495328 640.16041637 0.0434401 647.14873413 0.04061599 C655.51575301 0.03674485 663.88274082 0.02138542 672.24974475 0.00585488 C692.47524633 -0.03107906 712.70074931 -0.04742655 732.9262777 -0.06102348 C742.49121772 -0.06756234 752.05615524 -0.0763871 761.62109319 -0.08540338 C794.35200613 -0.11613163 827.08291864 -0.14184746 859.81384468 -0.15272617 C861.86927853 -0.15342257 863.92471238 -0.15412024 865.98014622 -0.15481919 C866.99947403 -0.15516472 868.01880184 -0.15551025 869.06901838 -0.15586625 C874.23358855 -0.15761971 879.39815872 -0.15939104 884.56272888 -0.16117859 C885.58766032 -0.16152813 886.61259176 -0.16187767 887.66858173 -0.1622378 C920.906421 -0.17376351 954.14414703 -0.21311937 987.38193948 -0.2689249 C1022.50873246 -0.32779445 1057.63545982 -0.36124821 1092.76230323 -0.36573833 C1096.61707237 -0.36632734 1100.47184147 -0.36702234 1104.32661057 -0.36779594 C1105.75037767 -0.36806438 1105.75037767 -0.36806438 1107.20290775 -0.36833825 C1122.49026758 -0.37182366 1137.7775029 -0.39852472 1153.06481931 -0.43352485 C1168.42605498 -0.46811585 1183.78713661 -0.47687855 1199.14840265 -0.45931423 C1208.27825356 -0.44962931 1217.40759904 -0.45944032 1226.5373801 -0.49708741 C1232.63445249 -0.52030297 1238.73117339 -0.51812946 1244.82824619 -0.49524923 C1248.30346563 -0.48293029 1251.77771539 -0.48167643 1255.25285186 -0.51131804 C1258.99762851 -0.5373744 1262.73983685 -0.52048268 1266.48454475 -0.49269962 C1267.56222941 -0.51051702 1268.63991406 -0.52833442 1269.75025582 -0.54669175 C1277.52959793 -0.42085831 1281.7996788 1.9482658 1287.31272888 7.3742218 C1289.87913513 10.18281555 1289.87913513 10.18281555 1291.87522888 12.8117218 C1294.60767094 16.30238077 1297.35394628 19.50344495 1300.56272888 22.5617218 C1303.03624234 24.95310688 1304.88736267 27.12457715 1306.56272888 30.1242218 C1309.23844978 34.74757628 1312.99967543 38.25048386 1316.79905701 41.93818665 C1319.71361555 44.76739282 1322.46204807 47.621214 1325.06272888 50.7492218 C1327.84231231 54.02130423 1330.87144935 56.40209888 1334.34788513 58.8976593 C1339.62308813 62.86192716 1343.70746087 67.81034652 1347.81272888 72.9367218 C1350.89107087 76.76626329 1353.95529557 80.10553068 1357.80491638 83.1554718 C1360.98331711 85.72454182 1362.57693771 87.28684833 1363.31272888 91.3742218 C1363.40601077 93.75747555 1363.44006526 96.14322299 1363.44136333 98.52830124 C1363.44399289 99.61556505 1363.44399289 99.61556505 1363.44667557 100.72479379 C1363.4513471 103.16652877 1363.4488671 105.60820451 1363.44644165 108.04994202 C1363.44830905 109.81310775 1363.45060946 111.57627307 1363.45330697 113.33943772 C1363.4594403 118.19483372 1363.45928958 123.05021253 1363.4581126 127.90561152 C1363.45790898 133.13819299 1363.46342369 138.37076889 1363.46817017 143.60334778 C1363.47648587 153.85919603 1363.47922543 164.11503853 1363.47978254 174.37088987 C1363.48025731 182.70596792 1363.48231006 191.04104407 1363.48548317 199.37612152 C1363.49429254 222.99642674 1363.49890215 246.61672742 1363.4981527 270.23703429 C1363.49811274 271.511105 1363.49807278 272.7851757 1363.49803162 274.09785461 C1363.4979703 276.01128856 1363.4979703 276.01128856 1363.49790774 277.96337774 C1363.49750127 298.63767835 1363.50707024 319.31196075 1363.52116998 339.98625609 C1363.53552609 361.20353549 1363.54244058 382.420806 1363.54157621 403.63809037 C1363.54124395 415.55433054 1363.54400337 427.47055162 1363.55475426 439.38678741 C1363.56384923 449.53284483 1363.5660428 459.6788745 1363.55924483 469.82493421 C1363.55597445 475.0025538 1363.55594161 480.18012013 1363.56459808 485.35773468 C1363.57244119 490.09757626 1363.57105408 494.83732216 1363.56231395 499.57716134 C1363.56077412 501.29184345 1363.56261326 503.00653262 1363.56817403 504.7212064 C1363.57523579 507.05317912 1363.56993926 509.38481639 1363.56161785 511.7167778 C1363.56183522 513.01173416 1363.56205259 514.30669052 1363.56227654 515.64088798 C1363.22149589 520.73910417 1362.73497321 525.6815645 1359.35838318 529.70014954 C1358.56343445 530.33380432 1357.76848572 530.96745911 1356.94944763 531.62031555 C1352.89867963 535.01451702 1349.06305793 538.48614068 1345.33226013 542.22187805 C1344.8246817 542.72834869 1344.31710327 543.23481934 1343.79414368 543.75663757 C1342.75792851 544.79248545 1341.72286927 545.82949091 1340.68894958 546.86763 C1339.12000528 548.44196335 1337.5457433 550.0108377 1335.97093201 551.57929993 C1331.064837 556.4822594 1326.26005892 561.42899004 1321.74607849 566.70063782 C1319.7976708 568.97560541 1317.76923683 571.15830722 1315.68772888 573.3117218 C1314.97358826 574.06324524 1314.25944763 574.81476868 1313.52366638 575.58906555 C1311.31272888 577.3742218 1311.31272888 577.3742218 1308.66429138 577.81562805 C1307.88827576 577.99996399 1307.11226013 578.18429993 1306.31272888 578.3742218 C1305.61921892 580.02989875 1304.96010682 581.69996853 1304.31272888 583.3742218 C1302.10727321 586.1579095 1299.64685016 588.68963059 1297.18772888 591.2492218 C1296.54835388 591.93113586 1295.90897888 592.61304993 1295.25022888 593.31562805 C1281.44678834 607.8674479 1281.44678834 607.8674479 1273.80790901 608.62146813 C1272.91723669 608.62016661 1272.02656437 608.6188651 1271.10890198 608.61752415 C1270.07529572 608.62088955 1269.04168947 608.62425494 1267.97676182 608.62772232 C1266.84771396 608.62121452 1265.7186661 608.61470672 1264.55540466 608.60800171 C1262.74821536 608.60950663 1262.74821536 608.60950663 1260.90451717 608.61104196 C1257.56263967 608.61182999 1254.2210011 608.60364031 1250.87915921 608.591694 C1247.27266419 608.58099829 1243.6661701 608.58189357 1240.05966187 608.5814209 C1233.80538433 608.57905746 1227.55115128 608.56947212 1221.29689026 608.55511665 C1212.22271816 608.53439223 1203.14856503 608.52574574 1194.07437241 608.5201953 C1179.31022467 608.51093262 1164.54609903 608.4934783 1149.78196716 608.47016907 C1148.89820786 608.46877575 1148.01444855 608.46738244 1147.10390866 608.46594691 C1146.21919286 608.46455137 1145.33447706 608.46315584 1144.4229517 608.46171802 C1142.63354556 608.45889705 1140.84413942 608.45607848 1139.05473328 608.45326233 C1138.16820287 608.451867 1137.28167246 608.45047168 1136.36827749 608.44903407 C1126.56965293 608.43376303 1116.77102569 608.42083264 1106.97239685 608.40864563 C1106.09699548 608.40755478 1105.22159411 608.40646393 1104.31966543 608.40534002 C1089.63937888 608.38721506 1074.95909004 608.37329017 1060.27879715 608.36147398 C1051.24918673 608.35394385 1042.21959929 608.342287 1033.19000214 608.32501232 C1026.97398211 608.31329888 1020.75796391 608.30520182 1014.54193527 608.29974682 C1010.97382684 608.2964681 1007.40574189 608.29159655 1003.83764458 608.28193283 C988.62687453 608.24420636 973.45217072 608.40066789 958.25226688 609.01440912 C947.82395182 609.43378928 937.40352287 609.50814822 926.96800232 609.44062805 C925.90414621 609.43392845 925.90414621 609.43392845 924.81879807 609.42709351 C922.31676453 609.41074598 919.81474813 609.39262535 917.31272888 609.3742218 C916.31207901 609.36703125 915.31142914 609.3598407 914.28045654 609.35243225 C894.48660287 609.208889 874.69302821 609.03299277 854.89945221 608.85599518 C846.18318196 608.7780591 837.46690371 608.70128073 828.75060654 608.62640381 C825.06863535 608.59431685 821.38668233 608.56055535 817.70472717 608.52668762 C799.57373341 608.36673265 781.44423836 608.34978253 763.31272888 608.3742218 C763.31365067 609.17330271 763.31457247 609.97238361 763.31552219 610.79567909 C763.33807439 630.67627146 763.35437325 650.55686113 763.36454105 670.43746376 C763.36959472 680.05343221 763.37644593 689.6693918 763.38816833 699.28535461 C763.43569982 739.15349662 763.39653686 779.01716062 762.90291286 818.88280058 C762.87158026 821.43913992 762.84172714 823.99549315 762.8121357 826.55185318 C762.76552646 830.52472618 762.71367964 834.49749655 762.65738988 838.47024393 C762.63742209 839.91433305 762.61882229 841.35844188 762.60173488 842.80256796 C762.36538725 862.33847881 762.36538725 862.33847881 759.60441837 865.05508114 C756.82254739 866.65637972 755.11489259 866.74918732 751.91533518 866.74911863 C750.81080675 866.75637296 749.70627832 866.76362729 748.56827933 866.77110144 C746.7447701 866.76013743 746.7447701 866.76013743 744.8844223 866.74895191 C743.58939944 866.75301264 742.29437658 866.75707336 740.9601106 866.76125714 C737.34664844 866.77215715 733.73342956 866.76425443 730.1199761 866.7534231 C726.19598804 866.74494134 722.27203393 866.75379741 718.34804773 866.76048726 C711.46452386 866.76980345 704.58107288 866.76790647 697.69754982 866.75875473 C687.4617381 866.74518329 677.22598264 866.7487109 666.99016689 866.75571333 C648.71194528 866.76765723 630.43375808 866.76254204 612.15553837 866.75043506 C596.16026906 866.73991197 580.16501151 866.73535789 564.16973877 866.73673058 C562.58018903 866.73685662 562.58018903 866.73685662 560.95852717 866.73698521 C556.65720269 866.73733744 552.35587822 866.73772145 548.05455376 866.73815079 C507.67873781 866.74211868 467.30294264 866.72938461 426.92713264 866.70862423 C391.03075714 866.69025386 355.13440155 866.68444169 319.23802185 866.68989563 C316.93323487 866.69024206 314.62844789 866.69058816 312.32366091 866.69093392 C311.18423538 866.69110492 310.04480984 866.69127591 308.87085626 866.69145209 C303.13552029 866.69230559 297.40018431 866.69312938 291.66484833 866.69392109 C290.53343289 866.69407817 289.40201744 866.69423525 288.23631668 866.69439709 C258.2697475 866.69838429 228.30318024 866.69291542 198.33661222 866.6844098 C195.11338502 866.68350273 191.89015781 866.68259708 188.6669306 866.68169457 C186.52859297 866.68109345 184.39025534 866.68048483 182.25191771 866.67986866 C167.32458382 866.67564191 152.3972537 866.67507127 137.4699194 866.67697415 C118.23620146 866.67941368 99.00250372 866.67537316 79.76879132 866.65976415 C69.58938265 866.65169424 59.41000763 866.64912681 49.23059693 866.65440651 C42.44032008 866.65737235 35.65007311 866.6531176 28.85980341 866.64285793 C24.98484204 866.63720428 21.10994956 866.63476749 17.23498756 866.64102451 C13.07027548 866.64766868 8.90573996 866.63900921 4.74103546 866.6286974 C3.52536264 866.63309388 2.30968983 866.63749036 1.05717844 866.64202008 C-0.59961421 866.63412518 -0.59961421 866.63412518 -2.28987741 866.6260708 C-3.71950122 866.62553191 -3.71950122 866.62553191 -5.17800632 866.62498214 C-7.83332317 866.35962627 -9.45142731 865.81184306 -11.68727112 864.3742218 C-16.93190454 853.88495496 -13.97237634 835.42205997 -13.24977112 823.94062805 C-13.20544952 823.23533966 -13.16112793 822.53005127 -13.11546326 821.8033905 C-13.06946991 821.07540253 -13.02347656 820.34741455 -12.97608948 819.59736633 C-11.40823197 794.73624473 -11.52588575 769.87791116 -11.66049561 744.9802862 C-11.74741218 728.48610812 -11.70368382 712.01621768 -11.25797778 695.52688077 C-10.67625444 673.56491508 -10.58018457 651.62193808 -10.67040753 629.65385032 C-10.68964032 624.64721622 -10.70207029 619.64056382 -10.71539307 614.63391113 C-10.73922481 605.98564068 -10.76693598 597.33739019 -10.79730225 588.68914032 C-10.8415858 576.03815335 -10.87801282 563.38715178 -10.91254288 550.73613486 C-10.96921566 530.00008812 -11.02983599 509.26405524 -11.0940094 488.5280304 C-11.09973704 486.67646053 -11.09973704 486.67646053 -11.10558039 484.78748521 C-11.14783464 471.14840647 -11.19073994 457.50932984 -11.23408508 443.87025452 C-11.33728841 411.36937313 -11.43569109 378.86848364 -11.52164364 346.36755157 C-11.52789704 344.00675628 -11.5341894 341.6459611 -11.54052067 339.28516603 C-11.73406854 267.10119943 -11.6154594 194.93088596 -10.88869381 122.75027132 C-10.73810852 107.71889704 -10.63252527 92.68861561 -10.62281799 77.65644836 C-10.62096418 76.4451385 -10.62096418 76.4451385 -10.61907291 75.20935774 C-10.60555263 64.03185873 -10.90730333 52.89415221 -11.45680237 41.72969055 C-13.02402234 8.09950382 -13.02402234 8.09950382 -8.55957127 1.77724934 C-5.75389532 -0.32521303 -3.47584452 -0.00047551 0 0 Z M766.31272888 177.3742218 C765.40693132 179.6363823 765.40693132 179.6363823 765.31272888 182.3742218 C765.21991638 183.39137268 765.12710388 184.40852356 765.03147888 185.45649719 C764.78300872 189.44949031 764.53734972 193.44231131 764.31272888 197.4367218 C764.2698172 198.19596954 764.22690552 198.95521729 764.18269348 199.73747253 C763.50776587 211.90677445 763.01453907 224.07978147 762.69578552 236.26359558 C762.65062915 237.97440088 762.60241728 239.68512998 762.55027771 241.39573669 C762.19560764 253.36600293 762.38754482 265.29522873 762.72444534 277.26173973 C763.25201811 296.08912423 763.38467204 314.8989919 763.34007263 333.7335968 C763.3373617 335.04933119 763.33465076 336.36506557 763.33185768 337.7206707 C763.30762156 349.28900685 763.27167496 360.85730377 763.22523266 372.42557168 C763.19514052 379.92583209 763.17413431 387.42604199 763.16191292 394.92635345 C763.15572703 397.48920638 763.14575192 400.05205319 763.13183403 402.61487579 C763.11266546 406.16067628 763.10573197 409.70630627 763.10154724 413.25215149 C763.09278564 414.29603531 763.08402405 415.33991913 763.07499695 416.41543579 C762.97179379 423.65591667 762.97179379 423.65591667 765.31272888 430.3742218 C770.09702847 432.89631166 775.44212971 432.80799571 780.74949646 432.99092102 C781.70313741 433.02851973 782.65677835 433.06611843 783.63931751 433.10485649 C796.47182958 433.55646429 809.31262862 433.52038319 822.15131736 433.50854731 C825.12526181 433.50647675 828.09920153 433.50775016 831.07314616 433.50898063 C838.17408966 433.51191793 845.27501954 433.50997257 852.3759613 433.5045929 C858.6972583 433.49985595 865.01853162 433.49968142 871.33982849 433.5045929 C906.26554126 433.53109491 941.1774783 433.36616643 976.09912348 432.82277679 C1002.30994236 432.41766674 1028.51275802 432.31394861 1054.72653413 432.3753047 C1057.61457058 432.38200053 1060.50260771 432.38803923 1063.39064598 432.3938942 C1080.90744709 432.42993004 1098.42419807 432.47693649 1115.94090271 432.54560852 C1124.74829192 432.58003671 1133.55564369 432.60387727 1142.36309284 432.61581695 C1147.85962371 432.6238599 1153.35589346 432.6449311 1158.85233986 432.67602181 C1162.21646239 432.6919427 1165.5805093 432.69544237 1168.94466591 432.69525146 C1170.50324949 432.69768156 1172.06183457 432.70529705 1173.62036514 432.71837997 C1175.73755702 432.73543011 1177.8539582 432.73422168 1179.97119141 432.72825623 C1181.74701269 432.73435252 1181.74701269 432.73435252 1183.55870914 432.74057198 C1184.92194891 432.55922864 1184.92194891 432.55922864 1186.31272888 432.3742218 C1188.38432438 429.26682855 1188.56290735 428.61198309 1188.56441116 425.09349823 C1188.56962666 424.21504289 1188.57484215 423.33658755 1188.58021569 422.43151236 C1188.57575425 421.46566922 1188.57129281 420.49982608 1188.56669617 419.50471497 C1188.56981615 418.47929675 1188.57293613 417.45387853 1188.57615066 416.39738703 C1188.5841584 412.94494618 1188.57779616 409.49267974 1188.57151794 406.04023743 C1188.57422657 403.57178646 1188.57778678 401.10333631 1188.58213806 398.6348877 C1188.59032922 392.61639602 1188.58910518 386.59797336 1188.58331278 380.57948434 C1188.57880061 375.68922604 1188.57818145 370.79898171 1188.58036041 365.90872192 C1188.58082011 364.86570737 1188.58082011 364.86570737 1188.5812891 363.80162182 C1188.58192853 362.38915662 1188.58257696 360.97669141 1188.58323428 359.56422621 C1188.58894079 346.31173164 1188.58237465 333.05926471 1188.57163355 319.80677468 C1188.56269774 308.42934086 1188.56424969 297.05194785 1188.57347107 285.67451477 C1188.58416804 272.47025235 1188.58839144 259.26601418 1188.58224654 246.06174803 C1188.58160943 244.65440592 1188.58098069 243.2470638 1188.58036041 241.83972168 C1188.58005186 241.1472371 1188.57974331 240.45475252 1188.57942541 239.74128357 C1188.57769675 234.85548074 1188.58061726 229.96969327 1188.58531952 225.08389282 C1188.59150624 218.51104799 1188.58711735 211.93826849 1188.57553101 205.36542702 C1188.5728782 202.94784995 1188.57366001 200.53026641 1188.57805634 198.11269188 C1188.58348877 194.82294849 1188.57670563 191.53345587 1188.56669617 188.24372864 C1188.57115761 187.2778855 1188.57561905 186.31204236 1188.58021569 185.31693125 C1188.5750002 184.43847591 1188.5697847 183.56002057 1188.56441116 182.65494537 C1188.56408646 181.89523233 1188.56376175 181.13551929 1188.56342721 180.35278463 C1188.42157194 178.05463417 1188.42157194 178.05463417 1186.31272888 175.3742218 C1183.26732612 174.91799823 1183.26732612 174.91799823 1179.59939098 174.99949169 C1178.54716381 174.9934006 1178.54716381 174.9934006 1177.47367951 174.98718646 C1175.09920911 174.9771604 1172.72531869 174.9887128 1170.3508606 175 C1168.64090328 174.99726215 1166.93094763 174.99321244 1165.2209962 174.98795635 C1160.50344946 174.97731999 1155.78609081 174.9855304 1151.06855214 174.99670684 C1145.98799934 175.00551625 1140.90747204 174.99711474 1135.82691956 174.99084473 C1125.86588796 174.98133497 1115.90492859 174.98797592 1105.94390234 175.00010767 C1094.35225544 175.0137014 1082.76062591 175.01209208 1071.16897307 175.00997434 C1050.4890936 175.00678116 1029.80924853 175.01847014 1009.12937927 175.03804016 C989.04863944 175.05703831 968.96793994 175.06413004 948.88719177 175.05854797 C927.0416238 175.05249332 905.19607358 175.05266208 883.35050708 175.06403381 C881.02192835 175.06524114 878.69334962 175.06644712 876.36477089 175.06765175 C875.21895866 175.06825529 874.07314644 175.06885883 872.89261263 175.06948065 C864.80725859 175.07336436 856.72191115 175.0729644 848.63655663 175.0710659 C838.78460464 175.06894605 828.93268803 175.07415189 819.08074602 175.08867946 C814.05136019 175.09593497 809.02202593 175.09999065 803.99263573 175.0954361 C799.3916448 175.0913708 794.79076053 175.09649345 790.18978582 175.10906217 C788.52220623 175.11199906 786.85461664 175.11154414 785.18703958 175.1074191 C782.92576151 175.10233185 780.66484302 175.1094739 778.4035902 175.11974621 C776.51705708 175.12104637 776.51705708 175.12104637 774.59241217 175.12237281 C771.37353123 175.36955275 769.15332833 175.86008165 766.31272888 177.3742218 Z " fill="#000000" transform="translate(98.68727111816406,44.62577819824219)"/>
<path d="" fill="#000000" transform="translate(0,0)"/>
<path d="" fill="#000000" transform="translate(0,0)"/>
</svg>
